# xmcd
#
# Track frame offsets: 
#        150
#        16304
#        39157
#        61193
#        80499
#        101112
#        125234
#        147851
#        168341
#        188935
#        208960
#        230888
#        249262
#        272955
#        293980
#        314023
#
# Disc length: 4471 seconds
#
# Revision: 4
# Processed by: cddbd v1.5.2PL0 Copyright (c) Steve Scherf et al.
# Submitted via: ExactAudioCopyFreeDBPlugin 1.0
#
DISCID=f5117510
DTITLE=高橋真梨子 - The Best ~New Edition~disc1
DYEAR=2004
DGENRE=JPop
TTITLE0=桃色吐息
TTITLE1=連絡
TTITLE2=ランナー
TTITLE3=遙かな人へ
TTITLE4=ハート＆ハード～時には強く時には優しく～
TTITLE5=テンダネス
TTITLE6=枯れない花
TTITLE7=蜃気楼
TTITLE8=無伴奏
TTITLE9=恋ことば
TTITLE10=貴方が生きたLove Song
TTITLE11=Say My Name
TTITLE12=グランパ
TTITLE13=For You・・・
TTITLE14=とまどい小夜曲(セレナーデ)
TTITLE15=漂流者へ
EXTD=YEAR: 2004
EXTT0=
EXTT1=
EXTT2=
EXTT3=
EXTT4=
EXTT5=
EXTT6=
EXTT7=
EXTT8=
EXTT9=
EXTT10=
EXTT11=
EXTT12=
EXTT13=
EXTT14=
EXTT15=
PLAYORDER=
